<?xml version="1.0" encoding="UTF-8"?>
<svg width="114px" height="43px" viewBox="0 0 114 43" version="1.1" xmlns="http://www.w3.org/2000/svg" xmlns:xlink="http://www.w3.org/1999/xlink">
    <!-- Generator: Sketch 41 (35326) - http://www.bohemiancoding.com/sketch -->
    <title>LOGO_MANDARINE_NOIR</title>
    <desc>Created with Sketch.</desc>
    <defs></defs>
    <g id="Page-1" stroke="none" stroke-width="1" fill="none" fill-rule="evenodd">
        <g id="Maquette" transform="translate(-1153.000000, -2969.000000)" fill="#C7D5E4">
            <g id="004" transform="translate(0.000000, 2304.000000)">
                <g id="FOOTER" transform="translate(100.000000, 665.000000)">
                    <g id="LOGO_MANDARINE_NOIR" transform="translate(1053.000000, 0.000000)">
                        <path d="M21.5,43 C33.3741221,43 43,33.3741221 43,21.5 C43,9.62587788 33.3741221,0 21.5,0 C9.62587788,0 0,9.62587788 0,21.5 C0,33.3741221 9.62587788,43 21.5,43 Z M21.5,40.3187067 C31.8932847,40.3187067 40.3187067,31.8932847 40.3187067,21.5 C40.3187067,11.1067153 31.8932847,2.6812933 21.5,2.6812933 C11.1067153,2.6812933 2.6812933,11.1067153 2.6812933,21.5 C2.6812933,31.8932847 11.1067153,40.3187067 21.5,40.3187067 Z M23.9664677,24.4465652 C23.6415741,24.029132 23.0659463,23.8966572 22.6135356,24.1578567 C22.2548672,24.3649341 22.0717596,24.762797 22.1104666,25.1629882 L22.1095563,25.1633396 L22.2428429,33.3032548 L22.2542291,33.3127283 C22.2914183,34.0147971 22.4924214,34.7241696 22.8718421,35.3813454 C24.1106677,37.5270542 26.7823982,38.3037843 28.8393191,37.1162204 C30.8962401,35.9286566 31.5594374,33.2265051 30.3206117,31.0807961 C30.0448499,30.6031626 29.6980867,30.1933625 29.3029086,29.8579623 L23.9766131,24.442649 L23.9664677,24.4465652 Z M21.1814518,25.2199258 C21.2468871,24.6950216 20.9335306,24.1943174 20.4289321,24.0591106 C20.0288893,23.9519196 19.6180811,24.1037745 19.3624732,24.4141225 L19.361581,24.4137273 L13.7000396,30.2637644 L13.7013922,30.2785145 C13.2312512,30.8012487 12.8717799,31.4449815 12.6753773,32.1779659 C12.034114,34.5711932 13.3740817,37.009623 15.6682789,37.6243513 C17.9624761,38.2390796 20.342137,36.7973213 20.9834004,34.4040939 C21.1261453,33.8713629 21.1707191,33.3363919 21.1284496,32.819795 L21.1913949,25.2243306 L21.1814518,25.2199258 Z M18.5467418,23.8072061 C18.9697815,23.4896472 19.1122822,22.9164191 18.8590182,22.4595188 C18.658232,22.0972909 18.2636253,21.9072676 17.8628196,21.9389844 L17.8624841,21.938068 L9.72148247,21.9292733 L9.71181161,21.9404925 C9.00920077,21.9654231 8.29642839,22.1540154 7.63273083,22.521909 C5.46572823,23.7230981 4.64248839,26.3808659 5.79397316,28.4581994 C6.94545793,30.5355329 9.63562347,31.2457883 11.8026261,30.0445991 C12.2849997,29.7772151 12.7007891,29.4376568 13.043035,29.0483923 L18.5504803,23.8174184 L18.5467418,23.8072061 Z M25.3186237,22.0019078 C24.7937195,21.9364724 24.2930153,22.249829 24.1578086,22.7544276 C24.0506175,23.1544703 24.2024725,23.5652785 24.5128204,23.8208864 L24.5124252,23.8217785 L30.3624623,29.4833199 L30.3772124,29.4819675 C30.8999466,29.9521083 31.5436794,30.3115797 32.2766638,30.5079822 C34.6698911,31.1492456 37.1083209,29.8092779 37.7230492,27.5150807 C38.3377775,25.2208834 36.8960192,22.8412225 34.5027918,22.1999592 C33.9700608,22.0572144 33.4350898,22.0126404 32.918493,22.0549099 L25.3230285,21.9919648 L25.3186237,22.0019078 Z M22.5249954,18.8797094 C22.9231065,18.9938659 23.3365024,18.8492036 23.5974876,18.5433639 L29.3611491,12.7934361 C29.8392465,12.2642151 30.2098978,11.626854 30.4190628,10.8974089 C31.101996,8.51573768 29.8047889,6.05429359 27.5216696,5.39961966 C25.2385503,4.74494574 22.8340896,6.14495367 22.1511563,8.52662489 C21.9991358,9.05678363 21.9452322,9.59089516 21.9784794,10.108151 L21.7829846,17.7013601 C21.7182631,18.2296201 22.0228334,18.7357167 22.5249954,18.8797094 Z M20.4738573,18.7471544 C20.8325259,18.540077 21.0156334,18.142214 20.9769264,17.7420228 L20.8445501,9.60175627 C20.7959748,8.89021396 20.5949716,8.18084153 20.2155509,7.52366568 C18.9767252,5.37795677 16.3049948,4.60122675 14.2480738,5.78879062 C12.1911529,6.97635448 11.5279556,9.67850596 12.7667812,11.8242149 C13.0425431,12.3018485 13.3893062,12.7116486 13.7844844,13.0470487 L19.1107799,18.4623621 C19.4458189,18.875879 20.0214467,19.0083538 20.4738573,18.7471544 Z M18.9009035,20.2537535 C19.0080947,19.8537108 18.8562396,19.4429025 18.5458918,19.1872948 L12.6962499,13.5248612 C12.1587656,13.0560727 11.5150328,12.6966015 10.7820484,12.5001988 C8.38882105,11.8589355 5.95039125,13.1989031 5.33566295,15.4931004 C4.72093467,17.7872976 6.16269299,20.1669586 8.5559203,20.8082219 C9.08865141,20.9509668 9.62362235,20.9955406 10.1402192,20.9532712 L17.7356837,21.0162163 C18.2649927,21.0717086 18.7656968,20.7583521 18.9009035,20.2537535 Z M24.2483867,20.4436315 C24.4491729,20.8058593 24.8437796,20.9958827 25.2445853,20.9641659 L33.3859224,20.973877 C34.0982041,20.9377271 34.8109764,20.7491349 35.4746741,20.3812413 C37.6416767,19.1800521 38.4649165,16.5222843 37.3134317,14.4449509 C36.1619469,12.3676173 33.4717813,11.657362 31.3047788,12.8585512 C30.8224052,13.1259352 30.4066157,13.4654935 30.0643699,13.8547579 L24.5569245,19.0857319 C24.1376234,19.4135031 23.9951227,19.9867312 24.2483867,20.4436315 Z" id="Combined-Shape"></path>
                        <path d="M57.4281386,15.7483279 C57.4686561,15.829363 57.5074848,15.9146173 57.5446259,16.0040935 C57.5817669,16.0935698 57.6189074,16.1822005 57.6560485,16.2699885 C57.6898131,16.178824 57.7252654,16.0885051 57.7624065,15.9990289 C57.7995475,15.9095526 57.8400645,15.8242983 57.8839584,15.7432633 L60.3453857,11.2812933 C60.3859032,11.2036347 60.4306407,11.156365 60.4795993,11.1394827 C60.5285579,11.1226004 60.5969303,11.1141594 60.6847182,11.1141594 L61.4089654,11.1141594 L61.4089654,18.3718245 L60.5479723,18.3718245 L60.5479723,13.0387321 C60.5479723,12.9678264 60.5496605,12.8918572 60.553037,12.8108222 C60.5564134,12.7297871 60.5614781,12.6470651 60.5682309,12.5626536 L58.0814804,17.1005935 C58.0038218,17.2525343 57.8856474,17.3285035 57.7269538,17.3285035 L57.5851432,17.3285035 C57.4264496,17.3285035 57.3082752,17.2525343 57.2306166,17.1005935 L54.6881547,12.5474596 C54.6982842,12.6352475 54.7058811,12.721346 54.7109457,12.8057575 C54.7160104,12.890169 54.7185427,12.9678264 54.7185427,13.0387321 L54.7185427,18.3718245 L53.8575497,18.3718245 L53.8575497,11.1141594 L54.5817968,11.1141594 C54.6695847,11.1141594 54.737113,11.1226004 54.7843834,11.1394827 C54.8316538,11.156365 54.8772354,11.2036347 54.9211293,11.2812933 L57.4281386,15.7483279 Z M69.1629677,18.3718245 L68.4032679,18.3718245 C68.31548,18.3718245 68.2445754,18.3498778 68.190552,18.3059838 C68.1365286,18.2620899 68.0960116,18.2063791 68.069,18.1388499 L67.3903349,16.3864758 L64.1337552,16.3864758 L63.4550901,18.1388499 C63.4348313,18.1996262 63.3960026,18.2536488 63.3386028,18.3009192 C63.2812029,18.3481896 63.2102983,18.3718245 63.1258868,18.3718245 L62.3661871,18.3718245 L65.2682402,11.1141594 L66.2609145,11.1141594 L69.1629677,18.3718245 Z M70.6266559,11.1141594 C70.6705499,11.1141594 70.7076903,11.1166917 70.7380785,11.1217564 C70.7684667,11.126821 70.795478,11.135262 70.8191132,11.1470797 C70.8427484,11.1588973 70.8663833,11.1757793 70.8900185,11.1977263 C70.9136537,11.2196733 70.9389768,11.2475287 70.9659885,11.2812933 L75.1645958,16.746067 C75.157843,16.658279 75.1519342,16.5730246 75.1468695,16.4903014 C75.1418048,16.4075781 75.1392725,16.3290766 75.1392725,16.2547945 L75.1392725,11.1141594 L76.0002656,11.1141594 L76.0002656,18.3718245 L75.5089931,18.3718245 C75.4313345,18.3718245 75.3663386,18.3583188 75.3140035,18.3313072 C75.2616683,18.3042955 75.2101781,18.2587139 75.1595312,18.1945612 L70.9609238,12.7297875 C70.9676767,12.814199 70.9727413,12.8969211 70.9761178,12.9779561 C70.9794942,13.0589912 70.9811824,13.1332722 70.9811824,13.2008014 L70.9811824,18.3718245 L70.1201894,18.3718245 L70.1201894,11.1141594 L70.6266559,11.1141594 Z M84.1442471,14.7455242 C84.1442471,15.2891343 84.0581487,15.7837784 83.8859492,16.2294711 C83.7137497,16.6751638 83.4706482,17.0566982 83.1566374,17.3740855 C82.8426266,17.6914727 82.4653128,17.9371065 82.0246848,18.1109942 C81.5840567,18.284882 81.0970096,18.3718245 80.5635289,18.3718245 L77.853933,18.3718245 L77.853933,11.1141594 L80.5635289,11.1141594 C81.0970096,11.1141594 81.5840567,11.2011019 82.0246848,11.3749896 C82.4653128,11.5488773 82.8426266,11.7953552 83.1566374,12.1144307 C83.4706482,12.4335062 83.7137497,12.8158847 83.8859492,13.2615774 C84.0581487,13.7072701 84.1442471,14.2019142 84.1442471,14.7455242 Z M83.1363788,14.7455242 C83.1363788,14.2998315 83.0756034,13.9014152 82.9540508,13.5502633 C82.8324982,13.1991114 82.6603013,12.9019873 82.437455,12.6588822 C82.2146086,12.4157771 81.9444958,12.2300745 81.6271085,12.1017691 C81.3097213,11.9734636 80.9551983,11.9093118 80.5635289,11.9093118 L78.8364781,11.9093118 L78.8364781,17.5766721 L80.5635289,17.5766721 C80.9551983,17.5766721 81.3097213,17.5125202 81.6271085,17.3842148 C81.9444958,17.2559093 82.2146086,17.0710508 82.437455,16.8296339 C82.6603013,16.5882171 82.8324982,16.2919371 82.9540508,15.9407852 C83.0756034,15.5896333 83.1363788,15.191217 83.1363788,14.7455242 Z M91.4576236,18.3718245 L90.6979238,18.3718245 C90.6101359,18.3718245 90.5392312,18.3498778 90.4852079,18.3059838 C90.4311845,18.2620899 90.3906675,18.2063791 90.3636559,18.1388499 L89.6849908,16.3864758 L86.4284111,16.3864758 L85.749746,18.1388499 C85.7294872,18.1996262 85.6906585,18.2536488 85.6332587,18.3009192 C85.5758588,18.3481896 85.5049542,18.3718245 85.4205427,18.3718245 L84.660843,18.3718245 L87.5628961,11.1141594 L88.5555704,11.1141594 L91.4576236,18.3718245 Z M86.701903,15.6774226 L89.4114988,15.6774226 L88.2719492,12.7247229 C88.2348081,12.6369349 88.1985117,12.5356426 88.1630589,12.420843 C88.127606,12.3060433 88.0913097,12.1828044 88.0541686,12.0511224 C88.020404,12.1828044 87.9857958,12.3068874 87.950343,12.4233753 C87.9148901,12.5398632 87.8785937,12.6419996 87.8414527,12.7297875 L86.701903,15.6774226 Z M93.3923256,15.3431547 L93.3923256,18.3718245 L92.4148453,18.3718245 L92.4148453,11.1141594 L94.4660346,11.1141594 C94.9252332,11.1141594 95.3219614,11.160585 95.6562309,11.2534376 C95.9905005,11.3462903 96.266522,11.4805026 96.4843037,11.6560785 C96.7020854,11.8316545 96.863309,12.0435242 96.9679792,12.291694 C97.0726495,12.5398638 97.1249838,12.8175736 97.1249838,13.1248314 C97.1249838,13.3814424 97.0844669,13.6211675 97.0034319,13.8440139 C96.9223968,14.0668602 96.8050666,14.2669125 96.6514376,14.4441767 C96.4978087,14.6214408 96.310418,14.7733793 96.0892598,14.8999965 C95.8681017,15.0266138 95.6174032,15.1203092 95.337157,15.1810855 C95.4654625,15.2621205 95.5735077,15.365101 95.6612956,15.49003 L97.7783256,18.3718245 L96.9072032,18.3718245 C96.7282508,18.3718245 96.5965708,18.3026081 96.5121594,18.1641732 L94.6281039,15.5710647 C94.5707041,15.4900296 94.5090846,15.4317866 94.4432436,15.3963337 C94.3774027,15.3608809 94.2752663,15.3431547 94.1368314,15.3431547 L93.3923256,15.3431547 Z M93.3923256,14.629037 L94.4255173,14.629037 C94.70914,14.629037 94.9598384,14.5944287 95.1776201,14.5252113 C95.3954018,14.4559939 95.5777279,14.358078 95.7246039,14.2314607 C95.8714799,14.1048435 95.9820573,13.9537492 96.0563395,13.7781732 C96.1306216,13.6025973 96.1677621,13.4084537 96.1677621,13.1957367 C96.1677621,12.7635498 96.0259529,12.4377263 95.7423303,12.2182564 C95.4587076,11.9987864 95.03328,11.8890531 94.4660346,11.8890531 L93.3923256,11.8890531 L93.3923256,14.629037 Z M99.7434157,18.3718245 L98.7608707,18.3718245 L98.7608707,11.1141594 L99.7434157,11.1141594 L99.7434157,18.3718245 Z M102.10355,11.1141594 C102.147443,11.1141594 102.184584,11.1166917 102.214972,11.1217564 C102.24536,11.126821 102.272372,11.135262 102.296007,11.1470797 C102.319642,11.1588973 102.343277,11.1757793 102.366912,11.1977263 C102.390547,11.2196733 102.415871,11.2475287 102.442882,11.2812933 L106.64149,16.746067 C106.634737,16.658279 106.628828,16.5730246 106.623763,16.4903014 C106.618699,16.4075781 106.616166,16.3290766 106.616166,16.2547945 L106.616166,11.1141594 L107.477159,11.1141594 L107.477159,18.3718245 L106.985887,18.3718245 C106.908229,18.3718245 106.843232,18.3583188 106.790897,18.3313072 C106.738562,18.3042955 106.687072,18.2587139 106.636425,18.1945612 L102.437818,12.7297875 C102.44457,12.814199 102.449635,12.8969211 102.453012,12.9779561 C102.456388,13.0589912 102.458076,13.1332722 102.458076,13.2008014 L102.458076,18.3718245 L101.597083,18.3718245 L101.597083,11.1141594 L102.10355,11.1141594 Z M113.802926,11.1141594 L113.802926,11.9143764 L110.313372,11.9143764 L110.313372,14.325157 L113.139455,14.325157 L113.139455,15.0949861 L110.313372,15.0949861 L110.313372,17.5716074 L113.807991,17.5716074 L113.802926,18.3718245 L109.330827,18.3718245 L109.330827,11.1141594 L113.802926,11.1141594 Z M55.4668222,28.8791674 L55.4668222,31.6789838 L53.7835658,31.6789838 L53.7835658,23.5376339 L56.5328845,23.5376339 C57.0902322,23.5376339 57.5718257,23.6030933 57.9776796,23.7340139 C58.3835334,23.8649345 58.7173759,24.0472854 58.9792171,24.2810722 C59.2410583,24.5148589 59.4346308,24.7925934 59.5599405,25.1142841 C59.6852503,25.4359747 59.7479042,25.7857145 59.7479042,26.1635139 C59.7479042,26.5637568 59.6824448,26.930329 59.5515242,27.2632413 C59.4206036,27.5961537 59.2223555,27.8823044 58.9567737,28.1217021 C58.6911919,28.3610998 58.3564142,28.5471912 57.9524307,28.6799821 C57.5484472,28.812773 57.0752698,28.8791674 56.5328845,28.8791674 L55.4668222,28.8791674 Z M55.4668222,27.5886709 L56.5328845,27.5886709 C57.0603075,27.5886709 57.4465174,27.4614928 57.691526,27.2071328 C57.9365345,26.9527728 58.059037,26.6049033 58.059037,26.1635139 C58.059037,25.9615221 58.0281775,25.7773009 57.9664579,25.6108447 C57.9047382,25.4443885 57.8112249,25.3022483 57.6859151,25.1844197 C57.5606054,25.0665912 57.402568,24.9758834 57.2117979,24.9122933 C57.0210279,24.8487033 56.7947257,24.8169088 56.5328845,24.8169088 L55.4668222,24.8169088 L55.4668222,27.5886709 Z M62.5140554,31.6789838 L60.8195774,31.6789838 L60.8195774,23.5376339 L62.5140554,23.5376339 L62.5140554,31.6789838 Z M69.7632794,29.6759088 C69.8567941,29.6759088 69.9353453,29.7095736 69.9989353,29.7769042 L70.666627,30.4894827 C70.3374553,30.9084286 69.9288021,31.2263738 69.4406553,31.4433279 C68.9525085,31.6602821 68.3717909,31.7687575 67.698485,31.7687575 C67.0887691,31.7687575 66.5407811,31.6649577 66.0545046,31.4573551 C65.5682281,31.2497525 65.1548993,30.9607963 64.8145058,30.5904781 C64.4741122,30.2201598 64.212275,29.7806472 64.0289861,29.2719273 C63.8456973,28.7632073 63.7540543,28.2077382 63.7540543,27.6055035 C63.7540543,27.20152 63.7980055,26.8171802 63.8859094,26.4524729 C63.9738132,26.0877655 64.1019265,25.7520527 64.2702529,25.4453245 C64.4385793,25.1385962 64.6415033,24.8617968 64.8790306,24.614918 C65.1165579,24.3680392 65.3849412,24.1576343 65.6841882,23.9836969 C65.9834353,23.8097595 66.3097967,23.6769706 66.6632823,23.5853262 C67.016768,23.4936818 67.3936266,23.4478603 67.7938695,23.4478603 C68.0931165,23.4478603 68.3764619,23.474044 68.643914,23.5264122 C68.911366,23.5787805 69.1610466,23.6517209 69.392963,23.7452356 C69.6248795,23.8387502 69.839025,23.9519014 70.0354059,24.0846923 C70.2317868,24.2174831 70.4085269,24.3624288 70.5656316,24.5195335 L69.9989353,25.2938314 C69.96527,25.342459 69.9222539,25.3854751 69.8698857,25.4228811 C69.8175174,25.460287 69.7464474,25.4789896 69.6566732,25.4789896 C69.566899,25.4789896 69.4761912,25.4471951 69.3845468,25.3836051 C69.2929023,25.320015 69.1806863,25.248945 69.0478955,25.1703926 C68.9151046,25.0918402 68.7486509,25.0207702 68.5485294,24.9571801 C68.3484079,24.8935901 68.0949869,24.8617956 67.7882587,24.8617956 C67.4478651,24.8617956 67.1355307,24.9235144 66.851246,25.0469538 C66.5669612,25.1703932 66.3228916,25.3490037 66.1190294,25.5827904 C65.9151673,25.8165771 65.7571299,26.103663 65.6449122,26.4440566 C65.5326946,26.7844501 65.4765866,27.1715952 65.4765866,27.6055035 C65.4765866,28.0431523 65.5373702,28.4331028 65.6589394,28.7753666 C65.7805085,29.1176304 65.9469622,29.4065866 66.1583054,29.6422436 C66.3696486,29.8779007 66.6165238,30.0565111 66.8989382,30.1780803 C67.1813527,30.2996494 67.4834006,30.360433 67.8050912,30.360433 C67.9958613,30.360433 68.1688609,30.3510817 68.3240953,30.3323788 C68.4793296,30.3136758 68.6233402,30.2818813 68.7561311,30.2369942 C68.8889219,30.1921072 69.0142298,30.1341289 69.1320583,30.0630577 C69.2498869,29.9919866 69.3686488,29.9022138 69.4883476,29.7937367 C69.529494,29.7600714 69.5725102,29.7320174 69.6173972,29.7095739 C69.6622843,29.6871304 69.7109112,29.6759088 69.7632794,29.6759088 Z M77.377209,23.5376339 L77.377209,24.8954607 L74.9982067,24.8954607 L74.9982067,31.6789838 L73.3093395,31.6789838 L73.3093395,24.8954607 L70.9303372,24.8954607 L70.9303372,23.5376339 L77.377209,23.5376339 Z M81.7256212,30.3323788 C81.9986842,30.3323788 82.243689,30.2865572 82.4606432,30.1949128 C82.6775974,30.1032684 82.8608834,29.9732849 83.0105069,29.8049584 C83.1601304,29.636632 83.2742167,29.432773 83.3527691,29.1933753 C83.4313214,28.9539776 83.470597,28.6846593 83.470597,28.3854122 L83.470597,23.5376339 L85.1538533,23.5376339 L85.1538533,28.3854122 C85.1538533,28.8791699 85.074367,29.3327095 84.915392,29.7460445 C84.7564171,30.1593794 84.5291797,30.5156652 84.2336732,30.8149122 C83.9381667,31.1141593 83.5790757,31.3479426 83.1563891,31.5162691 C82.7337026,31.6845955 82.2567848,31.7687575 81.7256212,31.7687575 C81.1944577,31.7687575 80.7166047,31.6845955 80.2920479,31.5162691 C79.8674911,31.3479426 79.507465,31.1141593 79.2119584,30.8149122 C78.9164519,30.5156652 78.6892146,30.1593794 78.5302396,29.7460445 C78.3712646,29.3327095 78.2917783,28.8791699 78.2917783,28.3854122 L78.2917783,23.5376339 L79.9750346,23.5376339 L79.9750346,28.3854122 C79.9750346,28.6846593 80.0143102,28.9539776 80.0928626,29.1933753 C80.1714149,29.432773 80.2855012,29.636632 80.4351247,29.8049584 C80.5847482,29.9732849 80.7680343,30.1032684 80.9849885,30.1949128 C81.2019426,30.2865572 81.4488177,30.3323788 81.7256212,30.3323788 Z M64.4072471,15.6774226 L67.116843,15.6774226 L65.9772933,12.7247229 C65.9401522,12.6369349 65.9038559,12.5356426 65.868403,12.420843 C65.8329501,12.3060433 65.7966538,12.1828044 65.7595127,12.0511224 C65.7257481,12.1828044 65.6911399,12.3068874 65.6556871,12.4233753 C65.6202342,12.5398632 65.5839378,12.6419996 65.5467968,12.7297875 L64.4072471,15.6774226 Z M88.4418141,28.5761813 L88.4418141,31.6789838 L86.7585577,31.6789838 L86.7585577,23.5376339 L89.3171074,23.5376339 C89.8856768,23.5376339 90.3719461,23.5965473 90.7759296,23.7143759 C91.1799131,23.8322044 91.5109502,23.9958527 91.7690508,24.2053256 C92.0271514,24.4147986 92.2160483,24.6644791 92.3357471,24.9543747 C92.4554459,25.2442703 92.5152945,25.5631506 92.5152945,25.9110254 C92.5152945,26.1803478 92.476954,26.4356391 92.4002719,26.676907 C92.3235898,26.918175 92.212309,27.1379313 92.0664261,27.3361824 C91.9205432,27.5344336 91.7409976,27.7102387 91.5277841,27.8636028 C91.3145705,28.0169669 91.0695656,28.1404045 90.7927621,28.2339192 C90.9012392,28.2937686 91.0031687,28.3657739 91.0985537,28.4499371 C91.1939387,28.5341003 91.2790358,28.6341595 91.3538476,28.7501178 L93.2503164,31.6789838 L91.7297748,31.6789838 C91.4454901,31.6789838 91.2397608,31.5705084 91.1125808,31.3535543 L89.563985,28.856724 C89.5003949,28.7594687 89.4302601,28.6883986 89.3535779,28.6435115 C89.2768958,28.5986245 89.1637448,28.5761813 89.0141212,28.5761813 L88.4418141,28.5761813 Z M88.4418141,27.392291 L89.3058857,27.392291 C89.5789486,27.392291 89.8146022,27.3576911 90.0128533,27.2884902 C90.2111045,27.2192893 90.3738177,27.1239057 90.5009977,27.0023366 C90.6281777,26.8807675 90.721691,26.7376922 90.7815404,26.5731062 C90.8413899,26.4085203 90.8713141,26.2289748 90.8713141,26.0344642 C90.8713141,25.6491836 90.7432009,25.349941 90.4869706,25.1367275 C90.2307402,24.9235139 89.8407898,24.8169088 89.3171074,24.8169088 L88.4418141,24.8169088 L88.4418141,27.392291 Z M99.2314873,23.5376339 L99.2314873,24.8561848 L95.7415358,24.8561848 L95.7415358,26.9490335 L98.4571894,26.9490335 L98.4571894,28.2226975 L95.7415358,28.2226975 L95.7415358,30.360433 L99.2314873,30.360433 L99.2314873,31.6789838 L94.0470577,31.6789838 L94.0470577,23.5376339 L99.2314873,23.5376339 Z M104.89845,25.0974515 C104.846082,25.1834851 104.79278,25.2461389 104.738541,25.2854151 C104.684302,25.3246913 104.614168,25.3443291 104.528134,25.3443291 C104.445841,25.3443291 104.357003,25.3153399 104.261618,25.2573609 C104.166234,25.1993818 104.054952,25.1367278 103.927773,25.0693972 C103.800593,25.0020667 103.654712,24.9394127 103.490126,24.8814336 C103.32554,24.8234545 103.132902,24.7944654 102.912208,24.7944654 C102.523187,24.7944654 102.231425,24.8814327 102.036915,25.0553701 C101.842404,25.2293075 101.74515,25.4565448 101.74515,25.7370889 C101.74515,25.9166372 101.798452,26.0653233 101.905059,26.1831518 C102.011667,26.3009804 102.151936,26.4029099 102.325874,26.4889434 C102.499811,26.574977 102.697124,26.6516579 102.917819,26.7189885 C103.138513,26.786319 103.364815,26.8601946 103.596732,26.9406172 C103.828649,27.0210398 104.054951,27.1154883 104.275645,27.2239654 C104.49634,27.3324424 104.693653,27.4689718 104.867591,27.6335577 C105.041528,27.7981437 105.181798,27.9991973 105.288405,28.2367246 C105.395012,28.4742519 105.448314,28.7632081 105.448314,29.1036016 C105.448314,29.4739199 105.38379,29.8208542 105.25474,30.1444151 C105.125689,30.467976 104.939598,30.7503862 104.69646,30.9916542 C104.453321,31.2329221 104.153143,31.4227541 103.795917,31.5611559 C103.438692,31.6995577 103.033779,31.7687575 102.581167,31.7687575 C102.323067,31.7687575 102.065905,31.7425738 101.809675,31.6902055 C101.553445,31.6378373 101.30657,31.5648969 101.069042,31.4713822 C100.831514,31.3778675 100.608018,31.2656515 100.398545,31.1347309 C100.189072,31.0038103 100.005786,30.8579296 99.8486813,30.6970843 L100.342436,29.900343 C100.383583,29.8404935 100.437821,29.7909315 100.505151,29.7516553 C100.572482,29.7123791 100.643552,29.6927413 100.718364,29.6927413 C100.81936,29.6927413 100.925964,29.7301467 101.038182,29.8049584 C101.150401,29.8797702 101.279448,29.9620619 101.425331,30.051836 C101.571215,30.1416102 101.740474,30.2239019 101.933114,30.2987136 C102.125754,30.3735254 102.356732,30.4109307 102.626054,30.4109307 C103.018816,30.4109307 103.322735,30.3211579 103.537818,30.1416097 C103.752902,29.9620615 103.860442,29.6946134 103.860442,29.3392575 C103.860442,29.1335251 103.80714,28.9670715 103.700533,28.8398915 C103.593926,28.7127115 103.454592,28.6061063 103.282524,28.5200727 C103.110457,28.4340392 102.914079,28.3601637 102.693385,28.298444 C102.47269,28.2367243 102.246388,28.1684596 102.014471,28.0936478 C101.782554,28.018836 101.556252,27.9290633 101.335558,27.8243268 C101.114863,27.7195903 100.918486,27.5811906 100.746418,27.4091236 C100.57435,27.2370565 100.435017,27.0238461 100.328409,26.7694861 C100.221802,26.5151261 100.1685,26.1990511 100.1685,25.8212517 C100.1685,25.5182641 100.228348,25.2246323 100.348047,24.9403476 C100.467746,24.6560629 100.643551,24.4035769 100.875468,24.1828822 C101.107385,23.9621875 101.3926,23.7845122 101.731123,23.649851 C102.069646,23.5151898 102.457727,23.4478603 102.895375,23.4478603 C103.385393,23.4478603 103.838932,23.523606 104.256008,23.6750999 C104.673083,23.8265938 105.025628,24.0369986 105.313654,24.306321 L104.89845,25.0974515 Z" id="MANDARINE-PICTURES"></path>
                    </g>
                </g>
            </g>
        </g>
    </g>
</svg>